# xmcd
#
# Track frame offsets:
#	150
#	13572
#	25222
#	39547
#	54900
#	68462
#	82967
#	98840
#	117460
#	133562
#	149170
#	164767
#	176762
#	188052
#	204410
#	220602
#	234635
#	251960
#	263282
#	281250
#	301482
#	317480
#
# Disc length: 4417 seconds
#
# Revision: 0
# Processed by: cddbd v1.5.2PL0 Copyright (c) Steve Scherf et al.
# Submitted via: audiograbber 1.83.01
#
DISCID=32113f16
DTITLE=Olympians and  Paschalis - Oi Hruses epituhies
DYEAR=1900
DGENRE=70's
TTITLE0=O TROPOS
TTITLE1=TO SHOLEIO
TTITLE2=SYGNOMI
TTITLE3=O ALEKSIS
TTITLE4=ISTORIA
TTITLE5=SIGA SIGA
TTITLE6=TO KORITSI TOY MAI (VENUS)
TTITLE7=I SYNTROFIA MAS (JESUS)
TTITLE8=FILE MOY FILE
TTITLE9=KAPOTE THARTHEI MIA MERA (JESUS CHRISTO)
TTITLE10=ANAMNISEIS
TTITLE11=GLYKEIA ZOI
TTITLE12=EIS AYTI POY AGAPO (YOU MEAN EVERYTHING TO ME)
TTITLE13=ITAN ANOIKSI(SUGAR BABY LOVE)
TTITLE14=FYGE SE PARAKALO (SENORITA POR FAVOR)
TTITLE15=MAKARI
TTITLE16=KOPAKAMPANA
TTITLE17=AN MIA MERA SE HASO (SI ME DEJAS NO VALE)
TTITLE18=AH KAI NA MPOROYSA
TTITLE19=STO MPARAKI(I NEED TO FORGET)
TTITLE20=PARADOSOY LOIPON
TTITLE21=MI ME MARTYRISEIS (NON, NON, NON)
EXTD=
EXTT0=
EXTT1=
EXTT2=
EXTT3=
EXTT4=
EXTT5=
EXTT6=
EXTT7=
EXTT8=
EXTT9=
EXTT10=
EXTT11=
EXTT12=
EXTT13=
EXTT14=
EXTT15=
EXTT16=
EXTT17=
EXTT18=
EXTT19=
EXTT20=
EXTT21=
PLAYORDER=
